<svg width="25" height="21" viewBox="0 0 25 21" fill="none" xmlns="http://www.w3.org/2000/svg">
<path fill-rule="evenodd" clip-rule="evenodd" d="M2.13086 10.3752C2.13086 10.2112 2.20906 10.0538 2.34824 9.93786C2.48743 9.82187 2.67622 9.7567 2.87306 9.7567H20.3786L15.7072 5.8651C15.5678 5.74896 15.4895 5.59145 15.4895 5.4272C15.4895 5.26296 15.5678 5.10544 15.7072 4.98931C15.8465 4.87317 16.0356 4.80792 16.2327 4.80792C16.4298 4.80792 16.6188 4.87317 16.7581 4.98931L22.6957 9.9373C22.7649 9.99476 22.8197 10.063 22.8571 10.1382C22.8945 10.2133 22.9138 10.2938 22.9138 10.3752C22.9138 10.4566 22.8945 10.5371 22.8571 10.6123C22.8197 10.6874 22.7649 10.7556 22.6957 10.8131L16.7581 15.7611C16.6188 15.8772 16.4298 15.9425 16.2327 15.9425C16.0356 15.9425 15.8465 15.8772 15.7072 15.7611C15.5678 15.645 15.4895 15.4874 15.4895 15.3232C15.4895 15.159 15.5678 15.0014 15.7072 14.8853L20.3786 10.9937H2.87306C2.67622 10.9937 2.48743 10.9285 2.34824 10.8125C2.20906 10.6966 2.13086 10.5392 2.13086 10.3752Z" fill="#1E1E1E"/>
</svg>
