<svg width="70" height="48" viewBox="0 0 70 48" fill="none" xmlns="http://www.w3.org/2000/svg">
<path d="M36.1979 23.8552C37.5976 22.3108 38.6719 20.5492 39.421 18.5703C40.17 16.5915 40.5436 14.5403 40.5417 12.4167C40.5417 10.2931 40.1671 8.24188 39.4181 6.26306C38.669 4.28424 37.5956 2.52261 36.1979 0.978166C39.0938 1.36428 41.507 2.64327 43.4375 4.81514C45.3681 6.98702 46.3333 9.52087 46.3333 12.4167C46.3333 15.3125 45.3681 17.8464 43.4375 20.0183C41.507 22.1901 39.0938 23.4691 36.1979 23.8552ZM50.7495 47.1667C51.1839 46.8289 51.5217 46.4061 51.763 45.8983C52.0043 45.3906 52.125 44.824 52.125 44.1985V38.4792C52.125 36.7417 51.7389 35.0882 50.9667 33.5186C50.1945 31.9491 49.1809 30.562 47.926 29.3573C50.3875 30.2261 52.6685 31.3487 54.7689 32.7252C56.8693 34.1017 57.9186 36.0197 57.9167 38.4792V44.2709C57.9167 45.0914 57.6387 45.7796 57.0827 46.3356C56.5267 46.8916 55.8394 47.1686 55.0208 47.1667H50.7495ZM60.8125 26.8959C59.992 26.8959 59.3038 26.6179 58.7478 26.0619C58.1918 25.5059 57.9147 24.8186 57.9167 24V21.1042H55.0208C54.2004 21.1042 53.5121 20.8262 52.9561 20.2702C52.4001 19.7142 52.1231 19.0269 52.125 18.2084C52.125 17.3879 52.403 16.6996 52.959 16.1436C53.515 15.5876 54.2023 15.3106 55.0208 15.3125H57.9167V12.4167C57.9167 11.5962 58.1947 10.908 58.7507 10.352C59.3067 9.79598 59.9939 9.51894 60.8125 9.52087C61.633 9.52087 62.3212 9.79887 62.8772 10.3549C63.4332 10.9109 63.7103 11.5981 63.7083 12.4167V15.3125H66.6042C67.4247 15.3125 68.1129 15.5905 68.6689 16.1465C69.2249 16.7025 69.5019 17.3898 69.5 18.2084C69.5 19.0289 69.222 19.7171 68.666 20.2731C68.11 20.8291 67.4227 21.1061 66.6042 21.1042H63.7083V24C63.7083 24.8205 63.4303 25.5088 62.8743 26.0648C62.3183 26.6208 61.6311 26.8978 60.8125 26.8959ZM23.1667 24C19.9813 24 17.2543 22.8658 14.9859 20.5974C12.7175 18.329 11.5833 15.6021 11.5833 12.4167C11.5833 9.23129 12.7175 6.50438 14.9859 4.23598C17.2543 1.96758 19.9813 0.833374 23.1667 0.833374C26.3521 0.833374 29.079 1.96758 31.3474 4.23598C33.6158 6.50438 34.75 9.23129 34.75 12.4167C34.75 15.6021 33.6158 18.329 31.3474 20.5974C29.079 22.8658 26.3521 24 23.1667 24ZM2.89584 47.1667C2.07536 47.1667 1.38711 46.8887 0.831114 46.3327C0.275114 45.7767 -0.00192054 45.0894 1.00202e-05 44.2709V39.0584C1.00202e-05 37.4174 0.422802 35.9087 1.26838 34.5322C2.11397 33.1557 3.23562 32.1064 4.63334 31.3844C7.6257 29.8882 10.6663 28.7656 13.7552 28.0166C16.8441 27.2675 19.9813 26.8939 23.1667 26.8959C26.3521 26.8959 29.4892 27.2704 32.5781 28.0195C35.667 28.7685 38.7076 29.8902 41.7 31.3844C43.0997 32.1084 44.2223 33.1586 45.0679 34.5351C45.9134 35.9116 46.3353 37.4193 46.3333 39.0584V44.2709C46.3333 45.0914 46.0553 45.7796 45.4993 46.3356C44.9433 46.8916 44.2561 47.1686 43.4375 47.1667H2.89584ZM23.1667 18.2084C24.7594 18.2084 26.1233 17.6408 27.2585 16.5056C28.3937 15.3705 28.9603 14.0075 28.9583 12.4167C28.9583 10.824 28.3908 9.46006 27.2556 8.32489C26.1204 7.18973 24.7575 6.62311 23.1667 6.62504C21.574 6.62504 20.21 7.19262 19.0749 8.32779C17.9397 9.46296 17.3731 10.8259 17.375 12.4167C17.375 14.0094 17.9426 15.3734 19.0778 16.5085C20.2129 17.6437 21.5759 18.2103 23.1667 18.2084ZM5.79168 41.375H40.5417V39.0584C40.5417 38.5275 40.4085 38.0448 40.142 37.6105C39.8756 37.1761 39.5262 36.8382 39.0938 36.5969C36.4875 35.2938 33.8571 34.3169 31.2026 33.6663C28.5481 33.0157 25.8695 32.6895 23.1667 32.6875C20.4639 32.6875 17.7853 33.0138 15.1307 33.6663C12.4762 34.3189 9.84584 35.2957 7.23959 36.5969C6.80522 36.8382 6.45482 37.1761 6.18841 37.6105C5.92199 38.0448 5.78975 38.5275 5.79168 39.0584V41.375Z" fill="#FAFAFA"/>
</svg>
