<svg width="25" height="21" viewBox="0 0 25 21" fill="none" xmlns="http://www.w3.org/2000/svg">
<path fill-rule="evenodd" clip-rule="evenodd" d="M2.13086 10.3739C2.13086 10.2099 2.20906 10.0526 2.34824 9.93658C2.48743 9.82059 2.67622 9.75542 2.87306 9.75542H20.3786L15.7072 5.86382C15.5678 5.74768 15.4895 5.59017 15.4895 5.42592C15.4895 5.26168 15.5678 5.10416 15.7072 4.98802C15.8465 4.87189 16.0356 4.80664 16.2327 4.80664C16.4298 4.80664 16.6188 4.87189 16.7581 4.98802L22.6957 9.93602C22.7649 9.99348 22.8197 10.0617 22.8571 10.1369C22.8945 10.212 22.9138 10.2926 22.9138 10.3739C22.9138 10.4553 22.8945 10.5358 22.8571 10.611C22.8197 10.6861 22.7649 10.7544 22.6957 10.8118L16.7581 15.7598C16.6188 15.876 16.4298 15.9412 16.2327 15.9412C16.0356 15.9412 15.8465 15.876 15.7072 15.7598C15.5678 15.6437 15.4895 15.4862 15.4895 15.3219C15.4895 15.1577 15.5678 15.0002 15.7072 14.884L20.3786 10.9924H2.87306C2.67622 10.9924 2.48743 10.9273 2.34824 10.8113C2.20906 10.6953 2.13086 10.538 2.13086 10.3739Z" fill="#1E1E1E"/>
</svg>
