<svg width="25" height="20" viewBox="0 0 25 20" fill="none" xmlns="http://www.w3.org/2000/svg">
<path fill-rule="evenodd" clip-rule="evenodd" d="M2.1308 9.9999C2.1308 9.83586 2.20899 9.67854 2.34818 9.56255C2.48737 9.44656 2.67615 9.3814 2.873 9.3814H20.3785L15.7071 5.4898C15.5678 5.37366 15.4895 5.21614 15.4895 5.0519C15.4895 4.88765 15.5678 4.73014 15.7071 4.614C15.8465 4.49786 16.0355 4.43262 16.2326 4.43262C16.4297 4.43262 16.6187 4.49786 16.7581 4.614L22.6957 9.562C22.7648 9.61945 22.8196 9.68771 22.857 9.76285C22.8945 9.83799 22.9137 9.91854 22.9137 9.9999C22.9137 10.0813 22.8945 10.1618 22.857 10.2369C22.8196 10.3121 22.7648 10.3803 22.6957 10.4378L16.7581 15.3858C16.6187 15.5019 16.4297 15.5672 16.2326 15.5672C16.0355 15.5672 15.8465 15.5019 15.7071 15.3858C15.5678 15.2697 15.4895 15.1121 15.4895 14.9479C15.4895 14.7837 15.5678 14.6261 15.7071 14.51L20.3785 10.6184H2.873C2.67615 10.6184 2.48737 10.5532 2.34818 10.4372C2.20899 10.3213 2.1308 10.1639 2.1308 9.9999Z" fill="#1E1E1E"/>
</svg>
