<svg width="25" height="21" viewBox="0 0 25 21" fill="none" xmlns="http://www.w3.org/2000/svg">
<path fill-rule="evenodd" clip-rule="evenodd" d="M23.0724 10.4406C23.0733 10.6047 22.996 10.7624 22.8575 10.8792C22.7189 10.996 22.5305 11.0622 22.3337 11.0633L4.82844 11.1628L9.52189 15.0278C9.66191 15.1432 9.7411 15.3002 9.74204 15.4645C9.74297 15.6287 9.66557 15.7867 9.52687 15.9036C9.38817 16.0205 9.19952 16.0869 9.00243 16.088C8.80534 16.0891 8.61595 16.0249 8.47593 15.9096L2.5103 10.9954C2.44086 10.9383 2.38563 10.8704 2.34779 10.7955C2.30995 10.7206 2.29023 10.6401 2.28977 10.5588C2.2893 10.4774 2.30811 10.3967 2.3451 10.3214C2.38208 10.246 2.43653 10.1775 2.50532 10.1196L8.4147 5.13796C8.5534 5.02103 8.74205 4.95471 8.93914 4.95359C9.13623 4.95247 9.32562 5.01664 9.46564 5.13198C9.60566 5.24733 9.68485 5.4044 9.68578 5.56864C9.68672 5.73288 9.60932 5.89084 9.47062 6.00776L4.82141 9.92586L22.3267 9.82635C22.5235 9.82523 22.7126 9.88932 22.8525 10.0045C22.9923 10.1197 23.0714 10.2766 23.0724 10.4406Z" fill="#1E1E1E"/>
</svg>
