<svg width="25" height="21" viewBox="0 0 25 21" fill="none" xmlns="http://www.w3.org/2000/svg">
<path fill-rule="evenodd" clip-rule="evenodd" d="M2.13084 10.4276C2.13084 10.2636 2.20904 10.1063 2.34823 9.99029C2.48742 9.8743 2.6762 9.80913 2.87304 9.80913H20.3786L15.7072 5.91753C15.5678 5.80139 15.4895 5.64388 15.4895 5.47963C15.4895 5.31539 15.5678 5.15787 15.7072 5.04173C15.8465 4.9256 16.0356 4.86035 16.2326 4.86035C16.4297 4.86035 16.6188 4.9256 16.7581 5.04173L22.6957 9.98973C22.7648 10.0472 22.8197 10.1154 22.8571 10.1906C22.8945 10.2657 22.9138 10.3463 22.9138 10.4276C22.9138 10.509 22.8945 10.5895 22.8571 10.6647C22.8197 10.7398 22.7648 10.8081 22.6957 10.8655L16.7581 15.8135C16.6188 15.9297 16.4297 15.9949 16.2326 15.9949C16.0356 15.9949 15.8465 15.9297 15.7072 15.8135C15.5678 15.6974 15.4895 15.5399 15.4895 15.3756C15.4895 15.2114 15.5678 15.0539 15.7072 14.9377L20.3786 11.0461H2.87304C2.6762 11.0461 2.48742 10.981 2.34823 10.865C2.20904 10.749 2.13084 10.5917 2.13084 10.4276Z" fill="#1E1E1E"/>
</svg>
