<svg width="25" height="21" viewBox="0 0 25 21" fill="none" xmlns="http://www.w3.org/2000/svg">
<path fill-rule="evenodd" clip-rule="evenodd" d="M2.13083 10.4999C2.13083 10.3359 2.20902 10.1785 2.34821 10.0626C2.4874 9.94656 2.67619 9.8814 2.87303 9.8814H20.3786L15.7072 5.9898C15.5678 5.87366 15.4895 5.71614 15.4895 5.5519C15.4895 5.38765 15.5678 5.23014 15.7072 5.114C15.8465 4.99786 16.0355 4.93262 16.2326 4.93262C16.4297 4.93262 16.6187 4.99786 16.7581 5.114L22.6957 10.062C22.7648 10.1195 22.8197 10.1877 22.8571 10.2628C22.8945 10.338 22.9138 10.4185 22.9138 10.4999C22.9138 10.5813 22.8945 10.6618 22.8571 10.7369C22.8197 10.8121 22.7648 10.8803 22.6957 10.9378L16.7581 15.8858C16.6187 16.0019 16.4297 16.0672 16.2326 16.0672C16.0355 16.0672 15.8465 16.0019 15.7072 15.8858C15.5678 15.7697 15.4895 15.6121 15.4895 15.4479C15.4895 15.2837 15.5678 15.1261 15.7072 15.01L20.3786 11.1184H2.87303C2.67619 11.1184 2.4874 11.0532 2.34821 10.9372C2.20902 10.8213 2.13083 10.6639 2.13083 10.4999Z" fill="#1E1E1E"/>
</svg>
