<svg width="25" height="21" viewBox="0 0 25 21" fill="none" xmlns="http://www.w3.org/2000/svg">
<path fill-rule="evenodd" clip-rule="evenodd" d="M2.13084 10.4247C2.13084 10.2607 2.20904 10.1033 2.34823 9.98736C2.48742 9.87137 2.6762 9.8062 2.87304 9.8062H20.3786L15.7072 5.9146C15.5678 5.79846 15.4895 5.64095 15.4895 5.4767C15.4895 5.31246 15.5678 5.15494 15.7072 5.03881C15.8465 4.92267 16.0356 4.85742 16.2326 4.85742C16.4297 4.85742 16.6188 4.92267 16.7581 5.03881L22.6957 9.9868C22.7648 10.0443 22.8197 10.1125 22.8571 10.1877C22.8945 10.2628 22.9138 10.3433 22.9138 10.4247C22.9138 10.5061 22.8945 10.5866 22.8571 10.6618C22.8197 10.7369 22.7648 10.8051 22.6957 10.8626L16.7581 15.8106C16.6188 15.9267 16.4297 15.992 16.2326 15.992C16.0356 15.992 15.8465 15.9267 15.7072 15.8106C15.5678 15.6945 15.4895 15.5369 15.4895 15.3727C15.4895 15.2085 15.5678 15.0509 15.7072 14.9348L20.3786 11.0432H2.87304C2.6762 11.0432 2.48742 10.978 2.34823 10.862C2.20904 10.7461 2.13084 10.5887 2.13084 10.4247Z" fill="#1E1E1E"/>
</svg>
