<svg width="25" height="20" viewBox="0 0 25 20" fill="none" xmlns="http://www.w3.org/2000/svg">
<path fill-rule="evenodd" clip-rule="evenodd" d="M2.13086 9.9999C2.13086 9.83586 2.20906 9.67854 2.34824 9.56255C2.48743 9.44656 2.67622 9.3814 2.87306 9.3814H20.3786L15.7072 5.4898C15.5678 5.37366 15.4895 5.21614 15.4895 5.0519C15.4895 4.88765 15.5678 4.73014 15.7072 4.614C15.8465 4.49786 16.0356 4.43262 16.2327 4.43262C16.4298 4.43262 16.6188 4.49786 16.7581 4.614L22.6957 9.562C22.7649 9.61945 22.8197 9.68771 22.8571 9.76285C22.8945 9.83799 22.9138 9.91854 22.9138 9.9999C22.9138 10.0813 22.8945 10.1618 22.8571 10.2369C22.8197 10.3121 22.7649 10.3803 22.6957 10.4378L16.7581 15.3858C16.6188 15.5019 16.4298 15.5672 16.2327 15.5672C16.0356 15.5672 15.8465 15.5019 15.7072 15.3858C15.5678 15.2697 15.4895 15.1121 15.4895 14.9479C15.4895 14.7837 15.5678 14.6261 15.7072 14.51L20.3786 10.6184H2.87306C2.67622 10.6184 2.48743 10.5532 2.34824 10.4372C2.20906 10.3213 2.13086 10.1639 2.13086 9.9999Z" fill="#1E1E1E"/>
</svg>
