<svg width="25" height="21" viewBox="0 0 25 21" fill="none" xmlns="http://www.w3.org/2000/svg">
<path fill-rule="evenodd" clip-rule="evenodd" d="M2.13086 10.4267C2.13086 10.2626 2.20906 10.1053 2.34824 9.98931C2.48743 9.87332 2.67622 9.80816 2.87306 9.80816H20.3786L15.7072 5.91655C15.5678 5.80042 15.4895 5.6429 15.4895 5.47866C15.4895 5.31441 15.5678 5.1569 15.7072 5.04076C15.8465 4.92462 16.0356 4.85938 16.2327 4.85938C16.4298 4.85937 16.6188 4.92462 16.7581 5.04076L22.6957 9.98876C22.7649 10.0462 22.8197 10.1145 22.8571 10.1896C22.8945 10.2647 22.9138 10.3453 22.9138 10.4267C22.9138 10.508 22.8945 10.5886 22.8571 10.6637C22.8197 10.7388 22.7649 10.8071 22.6957 10.8646L16.7581 15.8126C16.6188 15.9287 16.4298 15.9939 16.2327 15.9939C16.0356 15.9939 15.8465 15.9287 15.7072 15.8126C15.5678 15.6964 15.4895 15.5389 15.4895 15.3747C15.4895 15.2104 15.5678 15.0529 15.7072 14.9368L20.3786 11.0452H2.87306C2.67622 11.0452 2.48743 10.98 2.34824 10.864C2.20906 10.748 2.13086 10.5907 2.13086 10.4267Z" fill="#1E1E1E"/>
</svg>
