<svg width="25" height="21" viewBox="0 0 25 21" fill="none" xmlns="http://www.w3.org/2000/svg">
<path fill-rule="evenodd" clip-rule="evenodd" d="M2.13086 10.4227C2.13086 10.2587 2.20906 10.1014 2.34824 9.9854C2.48743 9.86941 2.67622 9.80425 2.87306 9.80425H20.3786L15.7072 5.91265C15.5678 5.79651 15.4895 5.63899 15.4895 5.47475C15.4895 5.31051 15.5678 5.15299 15.7072 5.03685C15.8465 4.92071 16.0356 4.85547 16.2327 4.85547C16.4298 4.85547 16.6188 4.92071 16.7581 5.03685L22.6957 9.98485C22.7649 10.0423 22.8197 10.1106 22.8571 10.1857C22.8945 10.2608 22.9138 10.3414 22.9138 10.4227C22.9138 10.5041 22.8945 10.5847 22.8571 10.6598C22.8197 10.7349 22.7649 10.8032 22.6957 10.8606L16.7581 15.8086C16.6188 15.9248 16.4298 15.99 16.2327 15.99C16.0356 15.99 15.8465 15.9248 15.7072 15.8086C15.5678 15.6925 15.4895 15.535 15.4895 15.3707C15.4895 15.2065 15.5678 15.049 15.7072 14.9329L20.3786 11.0412H2.87306C2.67622 11.0412 2.48743 10.9761 2.34824 10.8601C2.20906 10.7441 2.13086 10.5868 2.13086 10.4227Z" fill="#1E1E1E"/>
</svg>
