<svg width="25" height="20" viewBox="0 0 25 20" fill="none" xmlns="http://www.w3.org/2000/svg">
<path fill-rule="evenodd" clip-rule="evenodd" d="M2.13086 9.99892C2.13086 9.83489 2.20906 9.67757 2.34824 9.56158C2.48743 9.44559 2.67622 9.38042 2.87306 9.38042H20.3786L15.7072 5.48882C15.5678 5.37268 15.4895 5.21517 15.4895 5.05092C15.4895 4.88668 15.5678 4.72916 15.7072 4.61302C15.8465 4.49689 16.0356 4.43164 16.2327 4.43164C16.4298 4.43164 16.6188 4.49689 16.7581 4.61302L22.6957 9.56102C22.7649 9.61848 22.8197 9.68673 22.8571 9.76187C22.8945 9.83701 22.9138 9.91757 22.9138 9.99892C22.9138 10.0803 22.8945 10.1608 22.8571 10.236C22.8197 10.3111 22.7649 10.3794 22.6957 10.4368L16.7581 15.3848C16.6188 15.501 16.4298 15.5662 16.2327 15.5662C16.0356 15.5662 15.8465 15.501 15.7072 15.3848C15.5678 15.2687 15.4895 15.1112 15.4895 14.9469C15.4895 14.7827 15.5678 14.6252 15.7072 14.509L20.3786 10.6174H2.87306C2.67622 10.6174 2.48743 10.5523 2.34824 10.4363C2.20906 10.3203 2.13086 10.163 2.13086 9.99892Z" fill="#1E1E1E"/>
</svg>
