<svg width="25" height="21" viewBox="0 0 25 21" fill="none" xmlns="http://www.w3.org/2000/svg">
<path fill-rule="evenodd" clip-rule="evenodd" d="M2.13083 10.4989C2.13083 10.3349 2.20902 10.1776 2.34821 10.0616C2.4874 9.94559 2.67619 9.88042 2.87303 9.88042H20.3786L15.7072 5.98882C15.5678 5.87268 15.4895 5.71517 15.4895 5.55092C15.4895 5.38668 15.5678 5.22916 15.7072 5.11302C15.8465 4.99689 16.0355 4.93164 16.2326 4.93164C16.4297 4.93164 16.6187 4.99689 16.7581 5.11302L22.6957 10.061C22.7648 10.1185 22.8197 10.1867 22.8571 10.2619C22.8945 10.337 22.9138 10.4176 22.9138 10.4989C22.9138 10.5803 22.8945 10.6608 22.8571 10.736C22.8197 10.8111 22.7648 10.8794 22.6957 10.9368L16.7581 15.8848C16.6187 16.001 16.4297 16.0662 16.2326 16.0662C16.0355 16.0662 15.8465 16.001 15.7072 15.8848C15.5678 15.7687 15.4895 15.6112 15.4895 15.4469C15.4895 15.2827 15.5678 15.1252 15.7072 15.009L20.3786 11.1174H2.87303C2.67619 11.1174 2.4874 11.0523 2.34821 10.9363C2.20902 10.8203 2.13083 10.663 2.13083 10.4989Z" fill="#1E1E1E"/>
</svg>
