<svg width="25" height="21" viewBox="0 0 25 21" fill="none" xmlns="http://www.w3.org/2000/svg">
<path fill-rule="evenodd" clip-rule="evenodd" d="M2.13083 10.3759C2.13083 10.2118 2.20902 10.0545 2.34821 9.93853C2.4874 9.82254 2.67619 9.75737 2.87303 9.75737H20.3786L15.7072 5.86577C15.5678 5.74964 15.4895 5.59212 15.4895 5.42787C15.4895 5.26363 15.5678 5.10611 15.7072 4.98998C15.8465 4.87384 16.0355 4.80859 16.2326 4.80859C16.4297 4.80859 16.6187 4.87384 16.7581 4.98998L22.6957 9.93798C22.7648 9.99543 22.8197 10.0637 22.8571 10.1388C22.8945 10.214 22.9138 10.2945 22.9138 10.3759C22.9138 10.4572 22.8945 10.5378 22.8571 10.6129C22.8197 10.6881 22.7648 10.7563 22.6957 10.8138L16.7581 15.7618C16.6187 15.8779 16.4297 15.9432 16.2326 15.9432C16.0355 15.9432 15.8465 15.8779 15.7072 15.7618C15.5678 15.6456 15.4895 15.4881 15.4895 15.3239C15.4895 15.1596 15.5678 15.0021 15.7072 14.886L20.3786 10.9944H2.87303C2.67619 10.9944 2.4874 10.9292 2.34821 10.8132C2.20902 10.6972 2.13083 10.5399 2.13083 10.3759Z" fill="#1E1E1E"/>
</svg>
