<svg width="70" height="48" viewBox="0 0 70 48" fill="none" xmlns="http://www.w3.org/2000/svg">
<path d="M36.1979 23.8549C37.5976 22.3104 38.6719 20.5488 39.421 18.57C40.17 16.5912 40.5436 14.5399 40.5417 12.4163C40.5417 10.2927 40.1671 8.24151 39.4181 6.26269C38.669 4.28388 37.5956 2.52224 36.1979 0.9778C39.0938 1.36391 41.507 2.6429 43.4375 4.81478C45.3681 6.98665 46.3333 9.52051 46.3333 12.4163C46.3333 15.3122 45.3681 17.846 43.4375 20.0179C41.507 22.1898 39.0938 23.4688 36.1979 23.8549ZM50.7495 47.1663C51.1839 46.8285 51.5217 46.4057 51.763 45.898C52.0043 45.3902 52.125 44.8236 52.125 44.1981V38.4788C52.125 36.7413 51.7389 35.0878 50.9667 33.5183C50.1945 31.9487 49.1809 30.5616 47.926 29.357C50.3875 30.2257 52.6685 31.3483 54.7689 32.7248C56.8693 34.1013 57.9186 36.0193 57.9167 38.4788V44.2705C57.9167 45.091 57.6387 45.7792 57.0827 46.3352C56.5267 46.8912 55.8394 47.1683 55.0208 47.1663H50.7495ZM60.8125 26.8955C59.992 26.8955 59.3038 26.6175 58.7478 26.0615C58.1918 25.5055 57.9147 24.8182 57.9167 23.9997V21.1038H55.0208C54.2004 21.1038 53.5121 20.8258 52.9561 20.2698C52.4001 19.7138 52.1231 19.0266 52.125 18.208C52.125 17.3875 52.403 16.6993 52.959 16.1433C53.515 15.5873 54.2023 15.3102 55.0208 15.3122H57.9167V12.4163C57.9167 11.5959 58.1947 10.9076 58.7507 10.3516C59.3067 9.79561 59.9939 9.51858 60.8125 9.52051C61.633 9.52051 62.3212 9.79851 62.8772 10.3545C63.4332 10.9105 63.7103 11.5978 63.7083 12.4163V15.3122H66.6042C67.4247 15.3122 68.1129 15.5902 68.6689 16.1462C69.2249 16.7022 69.5019 17.3894 69.5 18.208C69.5 19.0285 69.222 19.7167 68.666 20.2727C68.11 20.8287 67.4227 21.1058 66.6042 21.1038H63.7083V23.9997C63.7083 24.8202 63.4303 25.5084 62.8743 26.0644C62.3183 26.6204 61.6311 26.8974 60.8125 26.8955ZM23.1667 23.9997C19.9813 23.9997 17.2543 22.8655 14.9859 20.5971C12.7175 18.3287 11.5833 15.6018 11.5833 12.4163C11.5833 9.23092 12.7175 6.50401 14.9859 4.23561C17.2543 1.96721 19.9813 0.833008 23.1667 0.833008C26.3521 0.833008 29.079 1.96721 31.3474 4.23561C33.6158 6.50401 34.75 9.23092 34.75 12.4163C34.75 15.6018 33.6158 18.3287 31.3474 20.5971C29.079 22.8655 26.3521 23.9997 23.1667 23.9997ZM2.89584 47.1663C2.07536 47.1663 1.38711 46.8883 0.831114 46.3323C0.275114 45.7763 -0.00192054 45.0891 1.00202e-05 44.2705V39.058C1.00202e-05 37.417 0.422802 35.9083 1.26838 34.5318C2.11397 33.1553 3.23562 32.1061 4.63334 31.384C7.6257 29.8879 10.6663 28.7652 13.7552 28.0162C16.8441 27.2671 19.9813 26.8936 23.1667 26.8955C26.3521 26.8955 29.4892 27.27 32.5781 28.0191C35.667 28.7681 38.7076 29.8898 41.7 31.384C43.0997 32.108 44.2223 33.1582 45.0679 34.5347C45.9134 35.9112 46.3353 37.419 46.3333 39.058V44.2705C46.3333 45.091 46.0553 45.7792 45.4993 46.3352C44.9433 46.8912 44.2561 47.1683 43.4375 47.1663H2.89584ZM23.1667 18.208C24.7594 18.208 26.1233 17.6404 27.2585 16.5053C28.3937 15.3701 28.9603 14.0071 28.9583 12.4163C28.9583 10.8236 28.3908 9.45969 27.2556 8.32453C26.1204 7.18936 24.7575 6.62274 23.1667 6.62467C21.574 6.62467 20.21 7.19226 19.0749 8.32742C17.9397 9.46259 17.3731 10.8256 17.375 12.4163C17.375 14.009 17.9426 15.373 19.0778 16.5082C20.2129 17.6433 21.5759 18.2099 23.1667 18.208ZM5.79168 41.3747H40.5417V39.058C40.5417 38.5271 40.4085 38.0445 40.142 37.6101C39.8756 37.1757 39.5262 36.8379 39.0938 36.5965C36.4875 35.2934 33.8571 34.3166 31.2026 33.666C28.5481 33.0154 25.8695 32.6891 23.1667 32.6872C20.4639 32.6872 17.7852 33.0134 15.1307 33.666C12.4762 34.3185 9.84584 35.2953 7.23959 36.5965C6.80522 36.8379 6.45482 37.1757 6.18841 37.6101C5.92199 38.0445 5.78975 38.5271 5.79168 39.058V41.3747Z" fill="#FAFAFA"/>
</svg>
