<svg width="75" height="56" viewBox="0 0 75 56" fill="none" xmlns="http://www.w3.org/2000/svg">
<path d="M57.9545 50.1584C60.7841 50.1584 63.0682 47.8743 63.0682 45.0447C63.0682 42.2152 60.7841 39.9311 57.9545 39.9311C55.125 39.9311 52.8409 42.2152 52.8409 45.0447C52.8409 47.8743 55.125 50.1584 57.9545 50.1584ZM63.0682 19.4766H54.5455V27.9993H69.75L63.0682 19.4766ZM17.0455 50.1584C19.875 50.1584 22.1591 47.8743 22.1591 45.0447C22.1591 42.2152 19.875 39.9311 17.0455 39.9311C14.2159 39.9311 11.9318 42.2152 11.9318 45.0447C11.9318 47.8743 14.2159 50.1584 17.0455 50.1584ZM64.7727 14.3629L75 27.9993V45.0447H68.1818C68.1818 50.7038 63.6136 55.272 57.9545 55.272C52.2955 55.272 47.7273 50.7038 47.7273 45.0447H27.2727C27.2727 50.7038 22.7045 55.272 17.0455 55.272C11.3864 55.272 6.81818 50.7038 6.81818 45.0447H0V7.54474C0 3.76065 3.03409 0.726562 6.81818 0.726562H54.5455V14.3629H64.7727ZM6.81818 7.54474V38.2266H9.40909C11.2841 36.147 14.0114 34.8175 17.0455 34.8175C20.0795 34.8175 22.8068 36.147 24.6818 38.2266H47.7273V7.54474H6.81818ZM30.6818 10.9538L42.6136 22.8857L30.6818 34.8175V26.2947H13.6364V19.4766H30.6818V10.9538Z" fill="#FAFAFA"/>
</svg>
