<svg width="70" height="48" viewBox="0 0 70 48" fill="none" xmlns="http://www.w3.org/2000/svg">
<path d="M36.1979 23.8559C37.5976 22.3114 38.6719 20.5498 39.421 18.571C40.17 16.5921 40.5436 14.5409 40.5417 12.4173C40.5417 10.2937 40.1671 8.24249 39.4181 6.26367C38.669 4.28485 37.5956 2.52322 36.1979 0.978777C39.0938 1.36489 41.507 2.64388 43.4375 4.81575C45.3681 6.98763 46.3333 9.52148 46.3333 12.4173C46.3333 15.3131 45.3681 17.847 43.4375 20.0189C41.507 22.1908 39.0938 23.4697 36.1979 23.8559ZM50.7495 47.1673C51.1839 46.8295 51.5217 46.4067 51.763 45.8989C52.0043 45.3912 52.125 44.8246 52.125 44.1991V38.4798C52.125 36.7423 51.7389 35.0888 50.9667 33.5192C50.1945 31.9497 49.1809 30.5626 47.926 29.3579C50.3875 30.2267 52.6685 31.3493 54.7689 32.7258C56.8693 34.1023 57.9186 36.0203 57.9167 38.4798V44.2715C57.9167 45.092 57.6387 45.7802 57.0827 46.3362C56.5267 46.8922 55.8394 47.1692 55.0208 47.1673H50.7495ZM60.8125 26.8965C59.992 26.8965 59.3038 26.6185 58.7478 26.0625C58.1918 25.5065 57.9147 24.8192 57.9167 24.0006V21.1048H55.0208C54.2004 21.1048 53.5121 20.8268 52.9561 20.2708C52.4001 19.7148 52.1231 19.0275 52.125 18.209C52.125 17.3885 52.403 16.7003 52.959 16.1443C53.515 15.5883 54.2023 15.3112 55.0208 15.3131H57.9167V12.4173C57.9167 11.5968 58.1947 10.9086 58.7507 10.3526C59.3067 9.79659 59.9939 9.51955 60.8125 9.52148C61.633 9.52148 62.3212 9.79948 62.8772 10.3555C63.4332 10.9115 63.7103 11.5988 63.7083 12.4173V15.3131H66.6042C67.4247 15.3131 68.1129 15.5911 68.6689 16.1471C69.2249 16.7031 69.5019 17.3904 69.5 18.209C69.5 19.0295 69.222 19.7177 68.666 20.2737C68.11 20.8297 67.4227 21.1067 66.6042 21.1048H63.7083V24.0006C63.7083 24.8211 63.4303 25.5094 62.8743 26.0654C62.3183 26.6214 61.6311 26.8984 60.8125 26.8965ZM23.1667 24.0006C19.9813 24.0006 17.2543 22.8664 14.9859 20.598C12.7175 18.3296 11.5833 15.6027 11.5833 12.4173C11.5833 9.2319 12.7175 6.50499 14.9859 4.23659C17.2543 1.96819 19.9813 0.833984 23.1667 0.833984C26.3521 0.833984 29.079 1.96819 31.3474 4.23659C33.6158 6.50499 34.75 9.2319 34.75 12.4173C34.75 15.6027 33.6158 18.3296 31.3474 20.598C29.079 22.8664 26.3521 24.0006 23.1667 24.0006ZM2.89584 47.1673C2.07536 47.1673 1.38711 46.8893 0.831114 46.3333C0.275114 45.7773 -0.00192054 45.09 1.00202e-05 44.2715V39.059C1.00202e-05 37.418 0.422802 35.9093 1.26838 34.5328C2.11397 33.1563 3.23562 32.107 4.63334 31.385C7.6257 29.8888 10.6663 28.7662 13.7552 28.0172C16.8441 27.2681 19.9813 26.8945 23.1667 26.8965C26.3521 26.8965 29.4892 27.271 32.5781 28.0201C35.667 28.7691 38.7076 29.8908 41.7 31.385C43.0997 32.109 44.2223 33.1592 45.0679 34.5357C45.9134 35.9122 46.3353 37.4199 46.3333 39.059V44.2715C46.3333 45.092 46.0553 45.7802 45.4993 46.3362C44.9433 46.8922 44.2561 47.1692 43.4375 47.1673H2.89584ZM23.1667 18.209C24.7594 18.209 26.1233 17.6414 27.2585 16.5062C28.3937 15.3711 28.9603 14.0081 28.9583 12.4173C28.9583 10.8246 28.3908 9.46067 27.2556 8.3255C26.1204 7.19034 24.7575 6.62372 23.1667 6.62565C21.574 6.62565 20.21 7.19323 19.0749 8.3284C17.9397 9.46357 17.3731 10.8265 17.375 12.4173C17.375 14.01 17.9426 15.374 19.0778 16.5091C20.2129 17.6443 21.5759 18.2109 23.1667 18.209ZM5.79168 41.3756H40.5417V39.059C40.5417 38.5281 40.4085 38.0454 40.142 37.6111C39.8756 37.1767 39.5262 36.8388 39.0938 36.5975C36.4875 35.2944 33.8571 34.3175 31.2026 33.6669C28.5481 33.0163 25.8695 32.6901 23.1667 32.6881C20.4639 32.6881 17.7852 33.0144 15.1307 33.6669C12.4762 34.3195 9.84584 35.2963 7.23959 36.5975C6.80522 36.8388 6.45482 37.1767 6.18841 37.6111C5.92199 38.0454 5.78975 38.5281 5.79168 39.059V41.3756Z" fill="#FAFAFA"/>
</svg>
