<svg width="75" height="56" viewBox="0 0 75 56" fill="none" xmlns="http://www.w3.org/2000/svg">
<path d="M57.9545 50.1594C60.7841 50.1594 63.0682 47.8753 63.0682 45.0457C63.0682 42.2162 60.7841 39.9321 57.9545 39.9321C55.125 39.9321 52.8409 42.2162 52.8409 45.0457C52.8409 47.8753 55.125 50.1594 57.9545 50.1594ZM63.0682 19.4775H54.5455V28.0003H69.75L63.0682 19.4775ZM17.0455 50.1594C19.875 50.1594 22.1591 47.8753 22.1591 45.0457C22.1591 42.2162 19.875 39.9321 17.0455 39.9321C14.2159 39.9321 11.9318 42.2162 11.9318 45.0457C11.9318 47.8753 14.2159 50.1594 17.0455 50.1594ZM64.7727 14.3639L75 28.0003V45.0457H68.1818C68.1818 50.7048 63.6136 55.273 57.9545 55.273C52.2955 55.273 47.7273 50.7048 47.7273 45.0457H27.2727C27.2727 50.7048 22.7045 55.273 17.0455 55.273C11.3864 55.273 6.81818 50.7048 6.81818 45.0457H0V7.54572C0 3.76163 3.03409 0.727539 6.81818 0.727539H54.5455V14.3639H64.7727ZM6.81818 7.54572V38.2275H9.40909C11.2841 36.148 14.0114 34.8185 17.0455 34.8185C20.0795 34.8185 22.8068 36.148 24.6818 38.2275H47.7273V7.54572H6.81818ZM30.6818 10.9548L42.6136 22.8866L30.6818 34.8185V26.2957H13.6364V19.4775H30.6818V10.9548Z" fill="#FAFAFA"/>
</svg>
