<svg width="25" height="20" viewBox="0 0 25 20" fill="none" xmlns="http://www.w3.org/2000/svg">
<path fill-rule="evenodd" clip-rule="evenodd" d="M2.13086 10C2.13086 9.83598 2.20906 9.67867 2.34824 9.56268C2.48743 9.44668 2.67622 9.38152 2.87306 9.38152H20.3786L15.7072 5.48992C15.5678 5.37378 15.4895 5.21626 15.4895 5.05202C15.4895 4.88778 15.5678 4.73026 15.7072 4.61412C15.8465 4.49798 16.0356 4.43274 16.2327 4.43274C16.4298 4.43274 16.6188 4.49798 16.7581 4.61412L22.6957 9.56212C22.7649 9.61958 22.8197 9.68783 22.8571 9.76297C22.8945 9.83811 22.9138 9.91867 22.9138 10C22.9138 10.0814 22.8945 10.1619 22.8571 10.2371C22.8197 10.3122 22.7649 10.3805 22.6957 10.4379L16.7581 15.3859C16.6188 15.5021 16.4298 15.5673 16.2327 15.5673C16.0356 15.5673 15.8465 15.5021 15.7072 15.3859C15.5678 15.2698 15.4895 15.1123 15.4895 14.948C15.4895 14.7838 15.5678 14.6263 15.7072 14.5101L20.3786 10.6185H2.87306C2.67622 10.6185 2.48743 10.5534 2.34824 10.4374C2.20906 10.3214 2.13086 10.1641 2.13086 10Z" fill="#1E1E1E"/>
</svg>
