<svg width="25" height="21" viewBox="0 0 25 21" fill="none" xmlns="http://www.w3.org/2000/svg">
<path fill-rule="evenodd" clip-rule="evenodd" d="M2.13086 10.3752C2.13086 10.2112 2.20906 10.0539 2.34824 9.93787C2.48743 9.82188 2.67622 9.75672 2.87306 9.75672H20.3786L15.7072 5.86512C15.5678 5.74898 15.4895 5.59146 15.4895 5.42722C15.4895 5.26298 15.5678 5.10546 15.7072 4.98932C15.8465 4.87318 16.0356 4.80794 16.2327 4.80794C16.4298 4.80794 16.6188 4.87318 16.7581 4.98932L22.6957 9.93732C22.7649 9.99477 22.8197 10.063 22.8571 10.1382C22.8945 10.2133 22.9138 10.2939 22.9138 10.3752C22.9138 10.4566 22.8945 10.5371 22.8571 10.6123C22.8197 10.6874 22.7649 10.7557 22.6957 10.8131L16.7581 15.7611C16.6188 15.8773 16.4298 15.9425 16.2327 15.9425C16.0356 15.9425 15.8465 15.8773 15.7072 15.7611C15.5678 15.645 15.4895 15.4875 15.4895 15.3232C15.4895 15.159 15.5678 15.0015 15.7072 14.8853L20.3786 10.9937H2.87306C2.67622 10.9937 2.48743 10.9286 2.34824 10.8126C2.20906 10.6966 2.13086 10.5393 2.13086 10.3752Z" fill="#1E1E1E"/>
</svg>
