<svg width="25" height="21" viewBox="0 0 25 21" fill="none" xmlns="http://www.w3.org/2000/svg">
<path fill-rule="evenodd" clip-rule="evenodd" d="M2.13086 10.4262C2.13086 10.2621 2.20906 10.1048 2.34824 9.98882C2.48743 9.87283 2.67622 9.80767 2.87306 9.80767H20.3786L15.7072 5.91607C15.5678 5.79993 15.4895 5.64241 15.4895 5.47817C15.4895 5.31392 15.5678 5.15641 15.7072 5.04027C15.8465 4.92413 16.0356 4.85889 16.2327 4.85889C16.4298 4.85889 16.6188 4.92413 16.7581 5.04027L22.6957 9.98827C22.7649 10.0457 22.8197 10.114 22.8571 10.1891C22.8945 10.2643 22.9138 10.3448 22.9138 10.4262C22.9138 10.5075 22.8945 10.5881 22.8571 10.6632C22.8197 10.7384 22.7649 10.8066 22.6957 10.8641L16.7581 15.8121C16.6188 15.9282 16.4298 15.9934 16.2327 15.9934C16.0356 15.9934 15.8465 15.9282 15.7072 15.8121C15.5678 15.6959 15.4895 15.5384 15.4895 15.3742C15.4895 15.2099 15.5678 15.0524 15.7072 14.9363L20.3786 11.0447H2.87306C2.67622 11.0447 2.48743 10.9795 2.34824 10.8635C2.20906 10.7475 2.13086 10.5902 2.13086 10.4262Z" fill="#1E1E1E"/>
</svg>
