<svg width="25" height="21" viewBox="0 0 25 21" fill="none" xmlns="http://www.w3.org/2000/svg">
<path fill-rule="evenodd" clip-rule="evenodd" d="M2.13086 10.5C2.13086 10.336 2.20906 10.1787 2.34824 10.0627C2.48743 9.94668 2.67622 9.88152 2.87306 9.88152H20.3786L15.7072 5.98992C15.5678 5.87378 15.4895 5.71626 15.4895 5.55202C15.4895 5.38778 15.5678 5.23026 15.7072 5.11412C15.8465 4.99798 16.0356 4.93274 16.2327 4.93274C16.4298 4.93274 16.6188 4.99798 16.7581 5.11412L22.6957 10.0621C22.7649 10.1196 22.8197 10.1878 22.8571 10.263C22.8945 10.3381 22.9138 10.4187 22.9138 10.5C22.9138 10.5814 22.8945 10.6619 22.8571 10.7371C22.8197 10.8122 22.7649 10.8805 22.6957 10.9379L16.7581 15.8859C16.6188 16.0021 16.4298 16.0673 16.2327 16.0673C16.0356 16.0673 15.8465 16.0021 15.7072 15.8859C15.5678 15.7698 15.4895 15.6123 15.4895 15.448C15.4895 15.2838 15.5678 15.1263 15.7072 15.0101L20.3786 11.1185H2.87306C2.67622 11.1185 2.48743 11.0534 2.34824 10.9374C2.20906 10.8214 2.13086 10.6641 2.13086 10.5Z" fill="#1E1E1E"/>
</svg>
